<?xml version="1.0" encoding="UTF-8" standalone="no"?>
<!-- Created with Inkscape (http://www.inkscape.org/) -->

<svg
   width="100.70837mm"
   height="19.401718mm"
   viewBox="0 0 100.70837 19.401718"
   version="1.1"
   id="svg1"
   inkscape:version="1.4.2 (f4327f4, 2025-05-13)"
   sodipodi:docname="logo_header.svg"
   xmlns:inkscape="http://www.inkscape.org/namespaces/inkscape"
   xmlns:sodipodi="http://sodipodi.sourceforge.net/DTD/sodipodi-0.dtd"
   xmlns="http://www.w3.org/2000/svg"
   xmlns:svg="http://www.w3.org/2000/svg">
  <sodipodi:namedview
     id="namedview1"
     pagecolor="#ffffff"
     bordercolor="#000000"
     borderopacity="0.25"
     inkscape:showpageshadow="2"
     inkscape:pageopacity="0.0"
     inkscape:pagecheckerboard="false"
     inkscape:deskcolor="#d1d1d1"
     inkscape:document-units="mm"
     inkscape:zoom="0.72604517"
     inkscape:cx="225.1926"
     inkscape:cy="-35.121782"
     inkscape:window-width="1920"
     inkscape:window-height="1017"
     inkscape:window-x="-8"
     inkscape:window-y="-8"
     inkscape:window-maximized="1"
     inkscape:current-layer="layer1"
     showguides="false"
     inkscape:clip-to-page="false" />
  <defs
     id="defs1">
    <clipPath
       clipPathUnits="userSpaceOnUse"
       id="clipPath32">
      <path
         d="M 0,3883 H 1000 V 0 H 0 Z"
         transform="translate(-801.82705,-2991.1463)"
         id="path32" />
    </clipPath>
    <clipPath
       clipPathUnits="userSpaceOnUse"
       id="clipPath34">
      <path
         d="M 0,3883 H 1000 V 0 H 0 Z"
         transform="translate(-820.96592,-2977.7323)"
         id="path34" />
    </clipPath>
    <clipPath
       clipPathUnits="userSpaceOnUse"
       id="clipPath36">
      <path
         d="M 0,3883 H 1000 V 0 H 0 Z"
         transform="translate(-844.9678,-2978.5687)"
         id="path36" />
    </clipPath>
    <clipPath
       clipPathUnits="userSpaceOnUse"
       id="clipPath38">
      <path
         d="M 0,3883 H 1000 V 0 H 0 Z"
         transform="translate(-871.37552,-2992.8455)"
         id="path38" />
    </clipPath>
    <clipPath
       clipPathUnits="userSpaceOnUse"
       id="clipPath40">
      <path
         d="M 0,3883 H 1000 V 0 H 0 Z"
         transform="translate(-891.79645,-2987.381)"
         id="path40" />
    </clipPath>
    <clipPath
       clipPathUnits="userSpaceOnUse"
       id="clipPath42">
      <path
         d="M 0,3883 H 1000 V 0 H 0 Z"
         transform="translate(-688.79792,-2992.1243)"
         id="path42" />
    </clipPath>
    <clipPath
       clipPathUnits="userSpaceOnUse"
       id="clipPath44">
      <path
         d="M 0,3883 H 1000 V 0 H 0 Z"
         transform="translate(-695.22842,-2979.652)"
         id="path44" />
    </clipPath>
    <clipPath
       clipPathUnits="userSpaceOnUse"
       id="clipPath46">
      <path
         d="M 0,3883 H 1000 V 0 H 0 Z"
         transform="translate(-722.26392,-2992.1243)"
         id="path46" />
    </clipPath>
    <clipPath
       clipPathUnits="userSpaceOnUse"
       id="clipPath48">
      <path
         d="M 0,3883 H 1000 V 0 H 0 Z"
         transform="translate(-763.41879,-2992.1243)"
         id="path48" />
    </clipPath>
    <clipPath
       clipPathUnits="userSpaceOnUse"
       id="clipPath50">
      <path
         d="M 0,3883 H 1000 V 0 H 0 Z"
         transform="translate(-770.92179,-2983.1555)"
         id="path50" />
    </clipPath>
    <clipPath
       clipPathUnits="userSpaceOnUse"
       id="clipPath52">
      <path
         d="M 0,3883 H 1000 V 0 H 0 Z"
         transform="translate(-650.25101,-2994.3584)"
         id="path52" />
    </clipPath>
    <clipPath
       clipPathUnits="userSpaceOnUse"
       id="clipPath54">
      <path
         d="M 0,3883 H 1000 V 0 H 0 Z"
         transform="translate(-625.98632,-2972.7433)"
         id="path54" />
    </clipPath>
    <clipPath
       clipPathUnits="userSpaceOnUse"
       id="clipPath56">
      <path
         d="M 0,3883 H 1000 V 0 H 0 Z"
         transform="translate(-636.85612,-2987.2259)"
         id="path56" />
    </clipPath>
  </defs>
  <g
     inkscape:label="Layer 1"
     inkscape:groupmode="layer"
     id="layer1"
     transform="translate(-45.397239,-99.289057)">
    <path
       id="path31"
       d="m 0,0 c 0.444,0 0.628,-0.236 0.549,-0.68 l -2.197,-10.25 c -0.13,-0.576 -0.183,-1.046 -0.183,-1.438 0,-1.203 0.654,-1.517 2.38,-1.517 h 10.59 c 0.444,0 0.627,-0.235 0.549,-0.68 l -0.654,-3.059 c -0.104,-0.444 -0.366,-0.68 -0.836,-0.68 H -0.549 c -4.341,0 -6.25,1.229 -6.25,4.367 0,0.732 0.105,1.569 0.314,2.536 L -4.21,-0.68 C -4.105,-0.236 -3.844,0 -3.399,0 Z"
       style="fill:#ef1926;fill-opacity:1;fill-rule:nonzero;stroke:none"
       transform="matrix(0.35277776,0,0,-0.35277776,114.21094,106.11608)"
       clip-path="url(#clipPath32)" />
    <path
       id="path33"
       d="m 0,0 c 0,-0.994 0.523,-1.281 1.935,-1.281 h 6.589 c 1.857,0 2.458,0.575 2.877,2.536 0.575,2.772 0.653,3.19 0.653,3.53 0,0.968 -0.549,1.255 -1.961,1.255 H 3.504 C 1.647,6.04 1.072,5.491 0.654,3.504 0.052,0.732 0,0.34 0,0 m 11.296,9.649 c 3.87,0 5.386,-0.994 5.386,-3.452 0,-0.549 -0.078,-1.203 -1.046,-5.727 -0.81,-3.843 -2.666,-5.36 -7.425,-5.36 H 0.732 c -3.87,0 -5.386,0.994 -5.386,3.452 0,0.549 0.078,1.203 1.046,5.726 0.81,3.844 2.667,5.361 7.426,5.361 z"
       style="fill:#191927;fill-opacity:1;fill-rule:nonzero;stroke:none"
       transform="matrix(0.35277776,0,0,-0.35277776,120.96271,110.84826)"
       clip-path="url(#clipPath34)" />
    <path
       id="path35"
       d="m 0,0 c 0,-0.836 0.497,-1.176 1.987,-1.176 h 8.838 c 0.994,4.602 1.02,4.889 1.02,5.151 0,0.915 -0.497,1.229 -1.987,1.229 H 3.347 C 1.464,5.204 1.019,4.628 0.602,3.19 0.314,2.223 0,0.915 0,0 m 11.06,8.812 c 3.87,0 5.387,-0.994 5.387,-3.426 0,-0.549 -0.078,-1.202 -2.249,-11.504 -0.836,-3.87 -2.693,-5.387 -7.452,-5.387 H -5.648 c -0.366,0 -0.523,0.183 -0.444,0.549 l 0.574,2.615 c 0.079,0.366 0.288,0.549 0.654,0.549 h 11.95 c 1.857,0 2.432,0.549 2.876,2.536 l 0.131,0.654 H 0.81 c -3.87,0 -5.386,1.02 -5.386,3.478 0,0.941 0.444,3.007 0.811,4.55 0.941,3.922 2.667,5.386 7.426,5.386 z"
       style="fill:#191927;fill-opacity:1;fill-rule:nonzero;stroke:none"
       transform="matrix(0.35277776,0,0,-0.35277776,129.43004,110.55319)"
       clip-path="url(#clipPath36)" />
    <path
       id="path37"
       d="M 0,0 C 0.471,0 0.654,-0.235 0.549,-0.68 L 0,-3.242 c -0.104,-0.471 -0.366,-0.68 -0.836,-0.68 H -3.87 c -0.47,0 -0.653,0.209 -0.549,0.68 L -3.87,-0.68 C -3.765,-0.235 -3.504,0 -3.033,0 Z m -1.15,-5.465 c 0.444,0 0.601,-0.209 0.523,-0.68 l -2.798,-13.178 c -0.105,-0.445 -0.366,-0.68 -0.837,-0.68 h -3.033 c -0.445,0 -0.628,0.235 -0.549,0.68 l 2.798,13.178 c 0.104,0.471 0.392,0.68 0.836,0.68 z"
       style="fill:#191927;fill-opacity:1;fill-rule:nonzero;stroke:none"
       transform="matrix(0.35277776,0,0,-0.35277776,138.7461,105.51661)"
       clip-path="url(#clipPath38)" />
    <path
       id="path39"
       d="m 0,0 c 0.366,0 0.497,-0.183 0.419,-0.549 l -0.523,-2.458 c -0.079,-0.366 -0.288,-0.549 -0.654,-0.549 h -11.636 c -0.758,0 -1.177,-0.314 -1.255,-0.889 -0.079,-0.445 -0.079,-0.523 -0.079,-0.602 0,-0.392 0.236,-0.575 0.889,-0.575 h 8.655 c 2.458,0 3.53,-0.889 3.53,-2.536 0,-0.34 -0.052,-0.68 -0.497,-2.641 -0.522,-2.275 -1.83,-3.74 -4.941,-3.74 h -13.467 c -0.366,0 -0.47,0.184 -0.392,0.549 l 0.497,2.459 c 0.078,0.366 0.314,0.549 0.68,0.549 h 12.263 c 0.732,0 1.098,0.313 1.229,0.915 0.157,0.785 0.157,0.863 0.157,0.941 0,0.366 -0.235,0.549 -0.889,0.549 h -8.681 c -2.432,0 -3.478,0.863 -3.478,2.51 0,0.341 0.052,0.707 0.393,2.38 0.444,2.223 1.83,3.687 4.941,3.687 z"
       style="fill:#191927;fill-opacity:1;fill-rule:nonzero;stroke:none"
       transform="matrix(0.35277776,0,0,-0.35277776,145.95015,107.4444)"
       clip-path="url(#clipPath40)" />
    <path
       id="path41"
       d="m 0,0 c 0.445,0 0.654,-0.235 0.549,-0.68 l -0.653,-3.059 c -0.105,-0.445 -0.366,-0.68 -0.811,-0.68 h -11.636 c -2.249,0 -2.981,-0.601 -3.478,-2.955 -0.889,-4.132 -0.941,-4.602 -0.941,-4.994 0,-1.203 0.654,-1.517 2.38,-1.517 h 11.635 c 0.471,0 0.654,-0.235 0.549,-0.679 l -0.653,-3.06 c -0.079,-0.444 -0.367,-0.68 -0.811,-0.68 h -11.819 c -4.34,0 -6.223,1.255 -6.223,4.393 0,0.732 0.078,1.569 1.229,7.008 1.046,5.02 3.504,6.903 8.864,6.903 z"
       style="fill:#ef1926;fill-opacity:1;fill-rule:nonzero;stroke:none"
       transform="matrix(0.35277776,0,0,-0.35277776,74.336913,105.77103)"
       clip-path="url(#clipPath42)" />
    <path
       id="path43"
       d="m 0,0 c 0,-1.203 0.653,-1.543 2.406,-1.543 h 7.792 c 2.248,0 2.954,0.628 3.451,2.981 0.942,4.341 0.994,4.811 0.994,5.203 0,1.203 -0.654,1.517 -2.38,1.517 H 4.445 C 2.196,8.158 1.49,7.556 0.994,5.203 0.052,0.863 0,0.392 0,0 m 13.335,12.472 c 4.341,0 6.224,-1.255 6.224,-4.393 0,-0.732 -0.079,-1.568 -1.229,-7.007 -1.046,-5.02 -3.504,-6.903 -8.864,-6.903 H 1.307 c -4.34,0 -6.223,1.255 -6.223,4.392 0,0.732 0.079,1.569 1.229,7.008 1.046,5.021 3.504,6.903 8.864,6.903 z"
       style="fill:#191927;fill-opacity:1;fill-rule:nonzero;stroke:none"
       transform="matrix(0.35277776,0,0,-0.35277776,76.605441,110.17103)"
       clip-path="url(#clipPath44)" />
    <path
       id="path45"
       d="m 0,0 c 0.366,0 0.497,-0.105 0.575,-0.366 l 4.132,-13.362 c 0.052,-0.131 0.104,-0.183 0.261,-0.183 h 0.131 c 0.131,0 0.235,0.052 0.314,0.183 l 9.674,13.362 C 15.297,-0.105 15.506,0 15.872,0 h 4.079 c 0.523,0 0.523,-0.314 0.235,-0.706 L 8.864,-16.002 C 7.505,-17.833 6.485,-18.304 5.23,-18.304 H 3.399 c -1.569,0 -2.379,0.445 -2.98,2.302 L -4.524,-0.706 C -4.628,-0.314 -4.471,0 -3.975,0 Z"
       style="fill:#191927;fill-opacity:1;fill-rule:nonzero;stroke:none"
       transform="matrix(0.35277776,0,0,-0.35277776,86.142904,105.77103)"
       clip-path="url(#clipPath46)" />
    <path
       id="path47"
       d="M 0,0 C 0.471,0 0.654,-0.235 0.549,-0.68 L -0.078,-3.609 C -0.183,-4.08 -0.444,-4.314 -0.889,-4.314 h -11.479 c -2.222,0 -2.954,-0.602 -3.452,-2.877 h 14.147 c 0.47,0 0.654,-0.209 0.549,-0.68 l -0.523,-2.405 c -0.078,-0.471 -0.366,-0.68 -0.81,-0.68 H -16.63 c -0.131,-0.68 -0.183,-1.15 -0.183,-1.543 0,-1.203 0.654,-1.516 2.38,-1.516 h 11.478 c 0.445,0 0.654,-0.21 0.549,-0.68 l -0.627,-2.929 c -0.105,-0.444 -0.366,-0.68 -0.837,-0.68 h -11.531 c -4.34,0 -6.223,1.255 -6.223,4.393 0,0.732 0.078,1.569 1.229,7.008 1.045,5.02 3.504,6.903 8.864,6.903 z"
       style="fill:#191927;fill-opacity:1;fill-rule:nonzero;stroke:none"
       transform="matrix(0.35277776,0,0,-0.35277776,100.66137,105.77103)"
       clip-path="url(#clipPath48)" />
    <path
       id="path49"
       d="m 0,0 h 9.256 c 1.412,0 2.04,0.575 2.301,1.804 0.288,1.36 0.314,1.595 0.314,1.779 0,0.783 -0.445,1.149 -1.621,1.149 H 1.359 C 1.124,4.732 0.993,4.628 0.941,4.393 Z m 12.107,8.969 c 3.347,0 4.785,-1.229 4.785,-3.609 0,-0.549 -0.053,-1.151 -0.55,-3.399 -0.654,-2.876 -2.065,-4.628 -4.785,-5.204 l 3.06,-5.334 c 0.13,-0.235 0,-0.758 -0.55,-0.758 h -4.026 c -0.497,0 -0.628,0.131 -0.759,0.366 l -2.745,5.23 H -0.785 L -1.83,-8.655 C -1.935,-9.1 -2.196,-9.335 -2.641,-9.335 H -6.04 c -0.445,0 -0.628,0.235 -0.523,0.68 l 3.556,16.839 c 0.104,0.523 0.444,0.785 0.967,0.785 z"
       style="fill:#191927;fill-opacity:1;fill-rule:nonzero;stroke:none"
       transform="matrix(0.35277776,0,0,-0.35277776,103.30826,108.93504)"
       clip-path="url(#clipPath50)" />
    <path
       id="path51"
       d="m 0,0 v -22.717 l -19.674,-11.359 -19.674,11.359 V 0 l 19.674,11.359 z M -19.674,16.14 -43.487,2.39 v -27.497 l 23.813,-13.75 23.815,13.75 V 2.391 Z"
       style="fill:#ef1926;fill-opacity:1;fill-rule:nonzero;stroke:none"
       transform="matrix(0.35277776,0,0,-0.35277776,60.738485,104.98289)"
       clip-path="url(#clipPath52)" />
    <path
       id="path53"
       d="M 0,0 V 17.534 L -5.958,20.513 -9.566,18.43 V 2.083 L 4.591,-6.091 18.749,2.083 V 2.087 L 10.87,6.031 Z"
       style="fill:#191927;fill-opacity:1;fill-rule:nonzero;stroke:none"
       transform="matrix(0.35277776,0,0,-0.35277776,52.178439,112.60827)"
       clip-path="url(#clipPath54)" />
    <path
       id="path55"
       d="m 0,0 7.879,3.944 v 0.004 l -14.157,8.174 -7.738,-4.46 z"
       style="fill:#ef1926;fill-opacity:1;fill-rule:nonzero;stroke:none"
       transform="matrix(0.35277776,0,0,-0.35277776,56.013064,107.49912)"
       clip-path="url(#clipPath56)" />
  </g>
</svg>
